<svg xmlns="http://www.w3.org/2000/svg" xmlns:xlink="http://www.w3.org/1999/xlink" width="800" zoomAndPan="magnify" viewBox="0 0 600 599.999999" height="800" preserveAspectRatio="xMidYMid meet" version="1.0"><defs><clipPath id="e617598dbd"><path d="M 10.820312 289 L 588.195312 289 L 588.195312 293 L 10.820312 293 Z M 10.820312 289 " clip-rule="nonzero"/></clipPath><clipPath id="5a17f2c671"><path d="M 10.820312 296 L 588.195312 296 L 588.195312 300 L 10.820312 300 Z M 10.820312 296 " clip-rule="nonzero"/></clipPath><clipPath id="495973abbc"><path d="M 12.257812 306.980469 L 586.761719 306.980469 L 586.761719 338.113281 L 12.257812 338.113281 Z M 12.257812 306.980469 " clip-rule="nonzero"/></clipPath><clipPath id="d354c004a5"><path d="M 195.261719 216.9375 L 403.757812 216.9375 L 403.757812 282.492188 L 195.261719 282.492188 Z M 195.261719 216.9375 " clip-rule="nonzero"/></clipPath></defs><g clip-path="url(#e617598dbd)"><path fill="#042372" d="M 16.59375 289.996094 L 582.421875 289.996094 C 582.800781 289.996094 583.175781 290.003906 583.550781 290.023438 C 583.921875 290.039062 584.28125 290.066406 584.632812 290.105469 C 584.984375 290.140625 585.316406 290.183594 585.632812 290.238281 C 585.945312 290.289062 586.238281 290.347656 586.503906 290.414062 C 586.773438 290.480469 587.011719 290.554688 587.222656 290.632812 C 587.433594 290.710938 587.613281 290.792969 587.757812 290.878906 C 587.902344 290.964844 588.011719 291.054688 588.085938 291.148438 C 588.160156 291.242188 588.195312 291.335938 588.195312 291.429688 C 588.195312 291.523438 588.160156 291.617188 588.085938 291.707031 C 588.011719 291.800781 587.902344 291.890625 587.757812 291.976562 C 587.613281 292.0625 587.433594 292.144531 587.222656 292.222656 C 587.011719 292.300781 586.773438 292.375 586.503906 292.441406 C 586.238281 292.507812 585.945312 292.566406 585.628906 292.621094 C 585.316406 292.671875 584.984375 292.714844 584.632812 292.753906 C 584.28125 292.789062 583.921875 292.816406 583.550781 292.832031 C 583.175781 292.851562 582.800781 292.863281 582.421875 292.863281 L 16.59375 292.863281 C 16.214844 292.863281 15.839844 292.851562 15.46875 292.832031 C 15.097656 292.816406 14.734375 292.789062 14.386719 292.753906 C 14.035156 292.714844 13.703125 292.671875 13.386719 292.621094 C 13.074219 292.566406 12.78125 292.507812 12.511719 292.441406 C 12.246094 292.375 12.003906 292.300781 11.792969 292.222656 C 11.582031 292.144531 11.40625 292.0625 11.261719 291.976562 C 11.117188 291.890625 11.007812 291.800781 10.933594 291.707031 C 10.859375 291.617188 10.820312 291.523438 10.820312 291.429688 C 10.820312 291.335938 10.859375 291.242188 10.933594 291.148438 C 11.007812 291.054688 11.117188 290.964844 11.261719 290.878906 C 11.40625 290.792969 11.582031 290.710938 11.792969 290.632812 C 12.003906 290.554688 12.246094 290.480469 12.511719 290.414062 C 12.78125 290.347656 13.074219 290.289062 13.386719 290.238281 C 13.703125 290.183594 14.035156 290.140625 14.386719 290.105469 C 14.734375 290.066406 15.097656 290.039062 15.46875 290.023438 C 15.839844 290.003906 16.214844 289.996094 16.59375 289.996094 Z M 16.59375 289.996094 " fill-opacity="1" fill-rule="nonzero"/></g><g clip-path="url(#5a17f2c671)"><path fill="#042372" d="M 16.59375 296.613281 L 582.421875 296.613281 C 582.800781 296.613281 583.175781 296.621094 583.550781 296.640625 C 583.921875 296.65625 584.28125 296.683594 584.632812 296.722656 C 584.984375 296.757812 585.316406 296.800781 585.632812 296.855469 C 585.945312 296.90625 586.238281 296.964844 586.503906 297.03125 C 586.773438 297.097656 587.011719 297.171875 587.222656 297.25 C 587.433594 297.328125 587.613281 297.410156 587.757812 297.496094 C 587.902344 297.582031 588.011719 297.671875 588.085938 297.765625 C 588.160156 297.859375 588.195312 297.953125 588.195312 298.046875 C 588.195312 298.140625 588.160156 298.234375 588.085938 298.324219 C 588.011719 298.417969 587.902344 298.507812 587.757812 298.59375 C 587.613281 298.679688 587.433594 298.761719 587.222656 298.839844 C 587.011719 298.917969 586.773438 298.992188 586.503906 299.058594 C 586.238281 299.125 585.945312 299.183594 585.628906 299.238281 C 585.316406 299.289062 584.984375 299.332031 584.632812 299.371094 C 584.28125 299.40625 583.921875 299.433594 583.550781 299.449219 C 583.175781 299.46875 582.800781 299.480469 582.421875 299.480469 L 16.59375 299.480469 C 16.214844 299.480469 15.839844 299.46875 15.46875 299.449219 C 15.097656 299.433594 14.734375 299.40625 14.386719 299.371094 C 14.035156 299.332031 13.703125 299.289062 13.386719 299.238281 C 13.074219 299.183594 12.78125 299.125 12.511719 299.058594 C 12.246094 298.992188 12.003906 298.917969 11.792969 298.839844 C 11.582031 298.761719 11.40625 298.679688 11.261719 298.59375 C 11.117188 298.507812 11.007812 298.417969 10.933594 298.324219 C 10.859375 298.234375 10.820312 298.140625 10.820312 298.046875 C 10.820312 297.953125 10.859375 297.859375 10.933594 297.765625 C 11.007812 297.671875 11.117188 297.582031 11.261719 297.496094 C 11.40625 297.410156 11.582031 297.328125 11.792969 297.25 C 12.003906 297.171875 12.246094 297.097656 12.511719 297.03125 C 12.78125 296.964844 13.074219 296.90625 13.386719 296.855469 C 13.703125 296.800781 14.035156 296.757812 14.386719 296.722656 C 14.734375 296.683594 15.097656 296.65625 15.46875 296.640625 C 15.839844 296.621094 16.214844 296.613281 16.59375 296.613281 Z M 16.59375 296.613281 " fill-opacity="1" fill-rule="nonzero"/></g><g clip-path="url(#495973abbc)"><path fill="#042372" d="M 23.179688 312.539062 L 18.78125 312.589844 L 18.636719 320.929688 L 22.941406 320.976562 L 28.152344 320.832031 L 28.582031 321.3125 L 28.101562 326.152344 L 22.414062 326.007812 L 18.542969 326.058594 L 18.496094 328.5 L 18.78125 338.28125 L 12.28125 338.28125 L 12.617188 329.078125 L 12.28125 307.410156 L 30.589844 307.410156 L 30.972656 307.9375 L 30.492188 312.828125 Z M 50.570312 332.910156 L 50.949219 333.4375 L 50.519531 338.28125 L 33.886719 338.28125 L 34.222656 329.078125 L 33.886719 307.410156 L 40.484375 307.410156 L 40.101562 328.5 L 40.242188 332.910156 Z M 65.480469 306.980469 C 69.816406 306.980469 73.152344 308.296875 75.492188 310.929688 C 77.835938 313.570312 79.007812 317.316406 79.007812 322.175781 C 79.007812 327.480469 77.734375 331.570312 75.183594 334.445312 C 72.636719 337.320312 69.035156 338.757812 64.382812 338.757812 C 60.082031 338.757812 56.757812 337.40625 54.410156 334.703125 C 52.074219 332.007812 50.902344 328.183594 50.902344 323.230469 C 50.902344 318.019531 52.167969 314.011719 54.699219 311.199219 C 57.234375 308.386719 60.828125 306.980469 65.480469 306.980469 Z M 64.910156 312.203125 C 62.359375 312.203125 60.511719 313.003906 59.363281 314.601562 C 58.214844 316.199219 57.644531 318.804688 57.644531 322.414062 C 57.644531 326.535156 58.207031 329.476562 59.335938 331.234375 C 60.46875 332.992188 62.34375 333.871094 64.957031 333.871094 C 67.503906 333.871094 69.355469 333.0625 70.5 331.445312 C 71.648438 329.835938 72.222656 327.191406 72.222656 323.515625 C 72.222656 319.457031 71.65625 316.558594 70.519531 314.8125 C 69.390625 313.074219 67.523438 312.203125 64.910156 312.203125 Z M 122.113281 307.410156 L 111.980469 338.28125 L 105.195312 338.28125 L 100.605469 323.515625 L 100.175781 323.515625 L 95.539062 338.28125 L 88.703125 338.28125 L 80.097656 307.410156 L 86.457031 307.410156 L 86.933594 311.199219 L 92.382812 331.570312 L 92.8125 331.570312 L 98.023438 314.9375 L 95.824219 307.410156 L 102.421875 307.410156 L 103.136719 311.867188 L 108.683594 331.570312 L 109.113281 331.570312 L 115.328125 311.628906 L 116.09375 307.410156 Z M 154.90625 307.410156 L 157.679688 338.28125 L 151.941406 338.28125 L 151.464844 328.933594 L 150.363281 317.046875 L 149.886719 317.046875 L 143.003906 335.019531 L 137.984375 335.019531 L 131.722656 317.046875 L 131.292969 317.046875 L 130.097656 328.308594 L 129.429688 338.28125 L 123.980469 338.28125 L 127.085938 307.410156 L 134.542969 307.410156 L 135.785156 311.964844 L 140.660156 326.585938 L 141.089844 326.585938 L 146.207031 311.964844 L 147.59375 307.410156 Z M 175.460938 333.199219 L 183.058594 332.910156 L 183.441406 333.4375 L 183.011719 338.28125 L 163.699219 338.28125 L 164.035156 329.078125 L 163.699219 307.410156 L 183.203125 307.410156 L 183.585938 307.9375 L 183.109375 312.78125 L 175.746094 312.539062 L 170.203125 312.589844 L 170.058594 320.019531 L 175.363281 320.113281 L 180.382812 319.96875 L 180.765625 320.449219 L 180.335938 325.289062 L 174.886719 325.144531 L 169.960938 325.195312 L 169.914062 328.5 L 170.058594 333.152344 Z M 207.292969 307.410156 L 207.675781 307.9375 L 207.292969 312.78125 L 201.511719 312.492188 L 199.597656 312.492188 L 199.359375 328.5 L 199.644531 338.28125 L 193.144531 338.28125 L 193.480469 329.078125 L 193.242188 312.492188 L 191.328125 312.492188 L 185.449219 312.78125 L 185.019531 312.253906 L 185.449219 307.410156 Z M 223.632812 333.199219 L 231.230469 332.910156 L 231.613281 333.4375 L 231.183594 338.28125 L 211.875 338.28125 L 212.207031 329.078125 L 211.875 307.410156 L 231.375 307.410156 L 231.757812 307.9375 L 231.28125 312.78125 L 223.917969 312.539062 L 218.375 312.589844 L 218.230469 320.019531 L 223.535156 320.113281 L 228.554688 319.96875 L 228.9375 320.449219 L 228.507812 325.289062 L 223.058594 325.144531 L 218.136719 325.195312 L 218.085938 328.5 L 218.230469 333.152344 Z M 252.359375 326.007812 C 254.84375 329.972656 257.316406 333.550781 259.769531 336.746094 L 259.671875 337.464844 C 257.601562 338.199219 255.484375 338.632812 253.316406 338.757812 L 252.644531 338.230469 C 250.351562 334.269531 248.488281 330.820312 247.054688 327.878906 L 242.417969 327.878906 L 242.417969 328.5 L 242.703125 338.28125 L 236.203125 338.28125 L 236.539062 329.078125 L 236.203125 307.410156 L 248.011719 307.363281 C 251.226562 307.363281 253.714844 308.152344 255.464844 309.730469 C 257.21875 311.316406 258.09375 313.578125 258.09375 316.519531 C 258.09375 318.5 257.59375 320.3125 256.59375 321.953125 C 255.585938 323.601562 254.175781 324.953125 252.359375 326.007812 Z M 242.703125 312.347656 L 242.511719 322.84375 L 247.246094 323.039062 C 249.953125 322.109375 251.308594 320.144531 251.308594 317.140625 C 251.308594 315.511719 250.871094 314.289062 250 313.46875 C 249.117188 312.660156 247.769531 312.21875 245.953125 312.15625 Z M 279.175781 307.410156 L 288.589844 338.28125 L 281.996094 338.28125 L 281.230469 334.253906 L 280.417969 331.378906 L 274.394531 331.234375 L 269.089844 331.378906 L 268.277344 333.917969 L 267.464844 338.28125 L 261.058594 338.28125 L 271.480469 307.410156 Z M 274.875 326.441406 L 279.03125 326.34375 L 275.398438 313.5 L 274.96875 313.5 L 270.761719 326.34375 Z M 315.835938 307.410156 L 305.464844 338.28125 L 297.722656 338.28125 L 288.304688 307.410156 L 294.902344 307.410156 L 295.667969 311.484375 L 301.496094 332.242188 L 301.929688 332.242188 L 308.621094 311.820312 L 309.433594 307.410156 Z M 331.171875 333.199219 L 338.773438 332.910156 L 339.152344 333.4375 L 338.722656 338.28125 L 319.414062 338.28125 L 319.746094 329.078125 L 319.414062 307.410156 L 338.914062 307.410156 L 339.296875 307.9375 L 338.820312 312.78125 L 331.457031 312.539062 L 325.914062 312.589844 L 325.769531 320.019531 L 331.074219 320.113281 L 336.09375 319.96875 L 336.476562 320.449219 L 336.046875 325.289062 L 330.597656 325.144531 L 325.675781 325.195312 L 325.625 328.5 L 325.769531 333.152344 Z M 359.898438 326.007812 C 362.386719 329.972656 364.855469 333.550781 367.308594 336.746094 L 367.210938 337.464844 C 365.140625 338.199219 363.023438 338.632812 360.855469 338.757812 L 360.1875 338.230469 C 357.890625 334.269531 356.027344 330.820312 354.59375 327.878906 L 349.957031 327.878906 L 349.957031 328.5 L 350.242188 338.28125 L 343.742188 338.28125 L 344.078125 329.078125 L 343.742188 307.410156 L 355.550781 307.363281 C 358.769531 307.363281 361.253906 308.152344 363.007812 309.730469 C 364.757812 311.316406 365.636719 313.578125 365.636719 316.519531 C 365.636719 318.5 365.136719 320.3125 364.132812 321.953125 C 363.128906 323.601562 361.714844 324.953125 359.898438 326.007812 Z M 350.242188 312.347656 L 350.050781 322.84375 L 354.785156 323.039062 C 357.492188 322.109375 358.847656 320.144531 358.847656 317.140625 C 358.847656 315.511719 358.410156 314.289062 357.539062 313.46875 C 356.660156 312.660156 355.308594 312.21875 353.492188 312.15625 Z M 382.84375 327.640625 L 382.746094 329.699219 L 383.035156 338.28125 L 376.582031 338.28125 L 376.867188 329.699219 L 376.820312 327.878906 L 367.019531 307.410156 L 373.90625 307.410156 L 374.574219 309.566406 L 379.785156 321.3125 L 380.214844 321.3125 L 386.046875 309.761719 L 386.953125 307.410156 L 393.597656 307.410156 Z M 423.234375 307.410156 L 422.898438 328.5 L 423.089844 338.28125 L 416.636719 338.28125 L 416.925781 329.078125 L 416.875 325.480469 L 409.945312 325.433594 L 403.683594 325.53125 L 403.636719 328.5 L 403.875 338.28125 L 397.421875 338.28125 L 397.757812 329.078125 L 397.421875 307.410156 L 403.96875 307.410156 L 403.78125 320.160156 L 410.375 320.257812 L 416.828125 320.160156 L 416.636719 307.410156 Z M 445.261719 307.410156 L 454.675781 338.28125 L 448.078125 338.28125 L 447.316406 334.253906 L 446.503906 331.378906 L 440.480469 331.234375 L 435.175781 331.378906 L 434.363281 333.917969 L 433.550781 338.28125 L 427.144531 338.28125 L 437.5625 307.410156 Z M 440.957031 326.441406 L 445.117188 326.34375 L 441.484375 313.5 L 441.054688 313.5 L 436.847656 326.34375 Z M 475.324219 326.007812 C 477.8125 329.972656 480.28125 333.550781 482.734375 336.746094 L 482.640625 337.464844 C 480.566406 338.199219 478.449219 338.632812 476.28125 338.757812 L 475.613281 338.230469 C 473.316406 334.269531 471.453125 330.820312 470.019531 327.878906 L 465.382812 327.878906 L 465.382812 328.5 L 465.671875 338.28125 L 459.167969 338.28125 L 459.503906 329.078125 L 459.167969 307.410156 L 470.976562 307.363281 C 474.195312 307.363281 476.679688 308.152344 478.433594 309.730469 C 480.183594 311.316406 481.0625 313.578125 481.0625 316.519531 C 481.0625 318.5 480.5625 320.3125 479.5625 321.953125 C 478.554688 323.601562 477.140625 324.953125 475.324219 326.007812 Z M 465.671875 312.347656 L 465.480469 322.84375 L 470.210938 323.039062 C 472.921875 322.109375 474.273438 320.144531 474.273438 317.140625 C 474.273438 315.511719 473.835938 314.289062 472.964844 313.46875 C 472.085938 312.660156 470.738281 312.21875 468.921875 312.15625 Z M 499.75 307.21875 C 504.210938 307.21875 507.636719 308.464844 510.027344 310.957031 C 512.417969 313.449219 513.613281 317.03125 513.613281 321.695312 C 513.613281 327.160156 512.273438 331.347656 509.597656 334.253906 C 506.921875 337.160156 503.097656 338.617188 498.125 338.617188 C 496.628906 338.617188 494.835938 338.582031 492.742188 338.519531 C 490.660156 338.457031 488.867188 338.375 487.371094 338.28125 L 487.707031 329.078125 L 487.371094 307.410156 Z M 499.273438 333.582031 C 504.339844 333.582031 506.875 330.117188 506.875 323.179688 C 506.875 319.410156 506.257812 316.667969 505.027344 314.957031 C 503.804688 313.25 501.886719 312.394531 499.273438 312.394531 C 497.585938 312.394531 495.785156 312.476562 493.871094 312.636719 L 493.585938 328.5 L 493.730469 333.246094 C 495.960938 333.472656 497.808594 333.582031 499.273438 333.582031 Z M 530.867188 306.980469 C 535.203125 306.980469 538.539062 308.296875 540.878906 310.929688 C 543.21875 313.570312 544.386719 317.316406 544.386719 322.175781 C 544.386719 327.480469 543.113281 331.570312 540.5625 334.445312 C 538.011719 337.320312 534.414062 338.757812 529.769531 338.757812 C 525.46875 338.757812 522.144531 337.40625 519.796875 334.703125 C 517.460938 332.007812 516.289062 328.183594 516.289062 323.230469 C 516.289062 318.019531 517.554688 314.011719 520.085938 311.199219 C 522.621094 308.386719 526.214844 306.980469 530.867188 306.980469 Z M 530.285156 312.203125 C 527.738281 312.203125 525.890625 313.003906 524.75 314.601562 C 523.605469 316.199219 523.03125 318.804688 523.03125 322.414062 C 523.03125 326.535156 523.59375 329.476562 524.722656 331.234375 C 525.855469 332.992188 527.730469 333.871094 530.34375 333.871094 C 532.894531 333.871094 534.742188 333.0625 535.886719 331.445312 C 537.035156 329.835938 537.609375 327.191406 537.609375 323.515625 C 537.609375 319.457031 537.042969 316.558594 535.90625 314.8125 C 534.777344 313.074219 532.90625 312.203125 530.285156 312.203125 Z M 565.65625 332.910156 L 566.039062 333.4375 L 565.609375 338.28125 L 548.976562 338.28125 L 549.308594 329.078125 L 548.976562 307.410156 L 555.570312 307.410156 L 555.191406 328.5 L 555.332031 332.910156 Z M 586.355469 332.910156 L 586.738281 333.4375 L 586.308594 338.28125 L 569.671875 338.28125 L 570.007812 329.078125 L 569.671875 307.410156 L 576.269531 307.410156 L 575.886719 328.5 L 576.03125 332.910156 Z M 586.355469 332.910156 " fill-opacity="1" fill-rule="nonzero"/></g><g clip-path="url(#d354c004a5)"><path fill="#042372" d="M 248.375 228.277344 C 229.421875 228.277344 217.789062 235.40625 217.789062 240.265625 C 217.789062 245.125 221.882812 249.660156 242.773438 249.660156 C 263.667969 249.660156 306.101562 223.09375 349.394531 223.09375 C 393.546875 223.097656 393.546875 245.339844 393.546875 245.339844 C 393.546875 245.339844 387.722656 240.265625 358.441406 240.265625 C 314.714844 240.265625 274.007812 263.917969 245.039062 263.917969 C 216.066406 263.917969 208.574219 250.9375 208.574219 240.785156 C 208.574219 232.035156 219.945312 216.613281 247.945312 216.613281 C 275.945312 216.613281 280.683594 233.675781 280.683594 233.675781 C 280.683594 233.675781 267.328125 228.277344 248.375 228.277344 Z M 195.390625 244.261719 C 195.390625 244.261719 189.789062 282.492188 252.035156 282.492188 C 314.285156 282.492188 337.980469 256.140625 386.230469 256.140625 C 400.84375 256.453125 403.457031 263.378906 403.457031 263.378906 C 403.457031 263.378906 409.273438 244.261719 369.640625 244.261719 C 330.011719 244.261719 283.546875 269.964844 246.007812 269.964844 C 208.464844 269.964844 195.390625 244.261719 195.390625 244.261719 Z M 195.390625 244.261719 " fill-opacity="1" fill-rule="nonzero"/></g></svg>