<svg xmlns="http://www.w3.org/2000/svg" version="1.1"
    xmlns:xlink="http://www.w3.org/1999/xlink"
    xmlns:svgjs="http://svgjs.dev/svgjs" width="1000" height="209" viewBox="0 0 1000 209">
    <g transform="matrix(1,0,0,1,-0.6060606060606233,0.5554402150525135)">
        <svg viewBox="0 0 396 83" data-background-color="#8abe53" preserveAspectRatio="xMidYMid meet" height="209" width="1000"
            xmlns="http://www.w3.org/2000/svg"
            xmlns:xlink="http://www.w3.org/1999/xlink">
            <g id="tight-bounds" transform="matrix(1,0,0,1,0.2400000000000091,-0.22058152081032745)">
                <svg viewBox="0 0 395.52 83.44116304162064" height="83.44116304162064" width="395.52">
                    <g>
                        <svg viewBox="0 0 397.4975999999999 83.85836885682873" height="83.44116304162064" width="395.52">
                            <g>
                                <rect width="397.4975999999999" height="1.9675638886689673" x="0" y="50.379269931089105" fill="#001C5B" opacity="1" stroke-width="0" stroke="transparent" fill-opacity="1" class="rect-o-0" data-fill-palette-color="primary" rx="1%" id="o-0" data-palette-color="#001C5B"></rect>
                            </g>
                            <g>
                                <rect width="397.4975999999999" height="1.9675638886689673" x="0" y="54.922179223775046" fill="#001C5B" opacity="1" stroke-width="0" stroke="transparent" fill-opacity="1" class="rect-o-1" data-fill-palette-color="primary" rx="1%" id="o-1" data-palette-color="#001C5B"></rect>
                            </g>
                            <g transform="matrix(1,0,0,1,0.9887999999999693,62.04043392047796)">
                                <svg viewBox="0 0 395.52 21.817934936350774" height="21.817934936350774" width="395.52">
                                    <g id="textblocktransform">
                                        <svg viewBox="0 0 395.52 21.817934936350774" height="21.817934936350774" width="395.52" id="textblock">
                                            <g>
                                                <svg viewBox="0 0 395.52 21.817934936350774" height="21.817934936350774" width="395.52">
                                                    <g transform="matrix(1,0,0,1,0,0)">
                                                        <svg width="395.52" viewBox="3.9000000953674316 -32.650001525878906 600.8999633789062 33.150001525878906" height="21.817934936350774" data-palette-color="#001C5B">
                                                            <path d="M15.3-26.85L10.7-26.8 10.55-18.1 15.05-18.05 20.5-18.2 20.95-17.7 20.45-12.65 14.5-12.8 10.45-12.75 10.4-10.2 10.7 0 3.9 0 4.25-9.6 3.9-32.2 23.05-32.2 23.45-31.65 22.95-26.55 15.3-26.85ZM43.95-5.6L44.35-5.05 43.9 0 26.5 0 26.85-9.6 26.5-32.2 33.4-32.2 33-10.2 33.15-5.6 43.95-5.6ZM59.55-32.65Q66.35-32.65 70.02-28.53 73.7-24.4 73.7-16.8L73.7-16.8Q73.7-8.5 69.7-4 65.7 0.5 58.4 0.5L58.4 0.5Q51.65 0.5 47.97-3.73 44.3-7.95 44.3-15.7L44.3-15.7Q44.3-23.85 48.27-28.25 52.25-32.65 59.55-32.65L59.55-32.65ZM58.95-27.2Q54.95-27.2 53.15-24.7 51.35-22.2 51.35-16.55L51.35-16.55Q51.35-10.1 53.12-7.35 54.9-4.6 59-4.6L59-4.6Q63-4.6 64.8-7.13 66.6-9.65 66.6-15.4L66.6-15.4Q66.6-21.75 64.82-24.48 63.05-27.2 58.95-27.2L58.95-27.2ZM118.79-32.2L108.19 0 101.09 0 96.29-15.4 95.84-15.4 90.99 0 83.84 0 74.84-32.2 81.49-32.2 81.99-28.25 87.69-7 88.14-7 93.59-24.35 91.29-32.2 98.19-32.2 98.94-27.55 104.74-7 105.19-7 111.69-27.8 112.49-32.2 118.79-32.2ZM153.09-32.2L155.99 0 149.99 0 149.49-9.75 148.34-22.15 147.84-22.15 140.64-3.4 135.39-3.4 128.84-22.15 128.39-22.15 127.14-10.4 126.44 0 120.74 0 123.99-32.2 131.79-32.2 133.09-27.45 138.19-12.2 138.64-12.2 143.99-27.45 145.44-32.2 153.09-32.2ZM174.59-5.3L182.54-5.6 182.94-5.05 182.49 0 162.29 0 162.64-9.6 162.29-32.2 182.69-32.2 183.09-31.65 182.59-26.6 174.89-26.85 169.09-26.8 168.94-19.05 174.49-18.95 179.74-19.1 180.14-18.6 179.69-13.55 173.99-13.7 168.84-13.65 168.79-10.2 168.94-5.35 174.59-5.3ZM207.89-32.2L208.29-31.65 207.89-26.6 201.84-26.9 199.84-26.9 199.59-10.2 199.89 0 193.09 0 193.44-9.6 193.19-26.9 191.19-26.9 185.04-26.6 184.59-27.15 185.04-32.2 207.89-32.2ZM224.98-5.3L232.93-5.6 233.33-5.05 232.88 0 212.68 0 213.03-9.6 212.68-32.2 233.08-32.2 233.48-31.65 232.98-26.6 225.28-26.85 219.48-26.8 219.33-19.05 224.88-18.95 230.13-19.1 230.53-18.6 230.08-13.55 224.38-13.7 219.23-13.65 219.18-10.2 219.33-5.35 224.98-5.3ZM255.03-12.8Q258.93-6.6 262.78-1.6L262.78-1.6 262.68-0.85Q259.43 0.3 256.03 0.5L256.03 0.5 255.33-0.05Q251.73-6.25 249.48-10.85L249.48-10.85 244.63-10.85 244.63-10.2 244.93 0 238.13 0 238.48-9.6 238.13-32.2 250.48-32.25Q255.53-32.25 258.28-29.78 261.03-27.3 261.03-22.7L261.03-22.7Q261.03-19.6 259.46-17.03 257.88-14.45 255.03-12.8L255.03-12.8ZM244.93-27.05L244.73-16.1 249.68-15.9Q253.93-17.35 253.93-22.05L253.93-22.05Q253.93-24.6 252.56-25.88 251.18-27.15 248.33-27.25L248.33-27.25 244.93-27.05ZM283.08-32.2L292.93 0 286.03 0 285.23-4.2 284.38-7.2 278.08-7.35 272.53-7.2 271.68-4.55 270.83 0 264.13 0 275.03-32.2 283.08-32.2ZM278.58-12.35L282.93-12.45 279.13-25.85 278.68-25.85 274.28-12.45 278.58-12.35ZM321.43-32.2L310.58 0 302.48 0 292.63-32.2 299.53-32.2 300.33-27.95 306.43-6.3 306.88-6.3 313.88-27.6 314.73-32.2 321.43-32.2ZM337.47-5.3L345.42-5.6 345.82-5.05 345.37 0 325.17 0 325.52-9.6 325.17-32.2 345.57-32.2 345.97-31.65 345.47-26.6 337.77-26.85 331.97-26.8 331.82-19.05 337.37-18.95 342.62-19.1 343.02-18.6 342.57-13.55 336.87-13.7 331.72-13.65 331.67-10.2 331.82-5.35 337.47-5.3ZM367.52-12.8Q371.42-6.6 375.27-1.6L375.27-1.6 375.17-0.85Q371.92 0.3 368.52 0.5L368.52 0.5 367.82-0.05Q364.22-6.25 361.97-10.85L361.97-10.85 357.12-10.85 357.12-10.2 357.42 0 350.62 0 350.97-9.6 350.62-32.2 362.97-32.25Q368.02-32.25 370.77-29.78 373.52-27.3 373.52-22.7L373.52-22.7Q373.52-19.6 371.95-17.03 370.37-14.45 367.52-12.8L367.52-12.8ZM357.42-27.05L357.22-16.1 362.17-15.9Q366.42-17.35 366.42-22.05L366.42-22.05Q366.42-24.6 365.05-25.88 363.67-27.15 360.82-27.25L360.82-27.25 357.42-27.05ZM391.52-11.1L391.42-8.95 391.72 0 384.97 0 385.27-8.95 385.22-10.85 374.97-32.2 382.17-32.2 382.87-29.95 388.32-17.7 388.77-17.7 394.87-29.75 395.82-32.2 402.77-32.2 391.52-11.1ZM433.77-32.2L433.42-10.2 433.62 0 426.87 0 427.17-9.6 427.12-13.35 419.87-13.4 413.32-13.3 413.27-10.2 413.52 0 406.77 0 407.12-9.6 406.77-32.2 413.62-32.2 413.42-18.9 420.32-18.8 427.07-18.9 426.87-32.2 433.77-32.2ZM456.81-32.2L466.66 0 459.76 0 458.96-4.2 458.11-7.2 451.81-7.35 446.26-7.2 445.41-4.55 444.56 0 437.86 0 448.76-32.2 456.81-32.2ZM452.31-12.35L456.66-12.45 452.86-25.85 452.41-25.85 448.01-12.45 452.31-12.35ZM488.26-12.8Q492.16-6.6 496.01-1.6L496.01-1.6 495.91-0.85Q492.66 0.3 489.26 0.5L489.26 0.5 488.56-0.05Q484.96-6.25 482.71-10.85L482.71-10.85 477.86-10.85 477.86-10.2 478.16 0 471.36 0 471.71-9.6 471.36-32.2 483.71-32.25Q488.76-32.25 491.51-29.78 494.26-27.3 494.26-22.7L494.26-22.7Q494.26-19.6 492.69-17.03 491.11-14.45 488.26-12.8L488.26-12.8ZM478.16-27.05L477.96-16.1 482.91-15.9Q487.16-17.35 487.16-22.05L487.16-22.05Q487.16-24.6 485.79-25.88 484.41-27.15 481.56-27.25L481.56-27.25 478.16-27.05ZM513.81-32.4Q520.81-32.4 524.56-28.5 528.31-24.6 528.31-17.3L528.31-17.3Q528.31-8.75 524.11-4.2 519.91 0.35 512.11 0.35L512.11 0.35Q509.76 0.35 506.48 0.25 503.21 0.15 500.86 0L500.86 0 501.21-9.6 500.86-32.2 513.81-32.4ZM513.31-4.9Q521.26-4.9 521.26-15.75L521.26-15.75Q521.26-21.65 519.33-24.33 517.41-27 513.31-27L513.31-27Q510.66-27 507.66-26.75L507.66-26.75 507.36-10.2 507.51-5.25Q511.01-4.9 513.31-4.9L513.31-4.9ZM546.36-32.65Q553.16-32.65 556.83-28.53 560.5-24.4 560.5-16.8L560.5-16.8Q560.5-8.5 556.5-4 552.5 0.5 545.21 0.5L545.21 0.5Q538.46 0.5 534.78-3.73 531.11-7.95 531.11-15.7L531.11-15.7Q531.11-23.85 535.08-28.25 539.06-32.65 546.36-32.65L546.36-32.65ZM545.75-27.2Q541.75-27.2 539.96-24.7 538.16-22.2 538.16-16.55L538.16-16.55Q538.16-10.1 539.93-7.35 541.71-4.6 545.81-4.6L545.81-4.6Q549.81-4.6 551.61-7.13 553.41-9.65 553.41-15.4L553.41-15.4Q553.41-21.75 551.63-24.48 549.86-27.2 545.75-27.2L545.75-27.2ZM582.75-5.6L583.15-5.05 582.7 0 565.3 0 565.65-9.6 565.3-32.2 572.2-32.2 571.8-10.2 571.95-5.6 582.75-5.6ZM604.4-5.6L604.8-5.05 604.35 0 586.95 0 587.3-9.6 586.95-32.2 593.85-32.2 593.45-10.2 593.6-5.6 604.4-5.6Z" opacity="1" transform="matrix(1,0,0,1,0,0)" fill="#001C5B" class="wordmark-text-0" data-fill-palette-color="primary" id="text-0"></path>
                                                        </svg>
                                                    </g>
                                                </svg>
                                            </g>
                                        </svg>
                                    </g>
                                </svg>
                            </g>
                            <g transform="matrix(1,0,0,1,126.97756503152992,0)">
                                <svg viewBox="0 0 143.54246993694008 45.22857912305516" height="45.22857912305516" width="143.54246993694008">
                                    <g>
                                        <svg xmlns="http://www.w3.org/2000/svg"
                                            xmlns:xlink="http://www.w3.org/1999/xlink" version="1.1" x="0" y="0" viewBox="10.825594902038574 38.09199905395508 80.66622924804688 25.41699981689453" enable-background="new 0 0 100 100" xml:space="preserve" height="45.22857912305516" width="143.54246993694008" class="icon-icon-0" data-fill-palette-color="accent" id="icon-0">
                                            <path d="M31.376 42.592c-7.333 0-11.834 2.75-11.834 4.625s1.584 3.625 9.667 3.625 24.5-10.25 41.25-10.25c17.083 0.002 17.083 8.583 17.083 8.583s-2.254-1.958-13.583-1.958c-16.917 0-32.667 9.125-43.874 9.125-11.209 0-14.108-5.008-14.108-8.925 0-3.375 4.399-9.325 15.232-9.325s12.667 6.583 12.667 6.583S38.709 42.592 31.376 42.592zM10.876 48.759c0 0-2.167 14.75 21.916 14.75 24.084 0 33.251-10.167 51.918-10.167 5.654 0.12 6.666 2.792 6.666 2.792s2.25-7.375-13.084-7.375c-15.332 0-33.308 9.917-47.832 9.917C15.935 58.676 10.876 48.759 10.876 48.759z" fill="#001C5B" data-fill-palette-color="accent"></path>
                                        </svg>
                                    </g>
                                </svg>
                            </g>
                            <g></g>
                        </svg>
                    </g>
                    <defs></defs>
                </svg>
                <rect width="395.52" height="83.44116304162064" fill="none" stroke="none" visibility="hidden"></rect>
            </g>
        </svg>
    </g>
</svg>